# xmcd
#
# Track frame offsets: 
#        150
#        17168
#        31152
#        42184
#        61686
#        78254
#        96400
#        111863
#        129124
#        141211
#        154966
#        167402
#        179364
#        192677
#        208818
#
# Disc length: 2866 seconds
#
# Revision: 0
# Processed by: cddbd v1.5.1PL0 Copyright (c) Steve Scherf et al.
# Submitted via: ExactAudioCopy v0.95a5
#
DISCID=c70b300f
DTITLE=Anne and Pete Sibley - Think Of This River
DYEAR=2004
DGENRE=Acoustic
TTITLE0=A Life Of No Tomorrow
TTITLE1=These Hills Of Tennessee
TTITLE2=Better Times a' Comin'
TTITLE3=Think Of This River
TTITLE4=Carry Me Over
TTITLE5=Some Sweet Day
TTITLE6=Rosaline
TTITLE7=Hard Times Come Again No More
TTITLE8=Blue Misty Morning
TTITLE9=How Did You Find Me Alone
TTITLE10=Have You Seen That Turtle Dove
TTITLE11=Believe
TTITLE12=Sadies Dance - Liza Jane
TTITLE13=There Is Beauty
TTITLE14=The Peace Song
EXTD=
EXTT0=
EXTT1=
EXTT2=
EXTT3=
EXTT4=
EXTT5=
EXTT6=
EXTT7=
EXTT8=
EXTT9=
EXTT10=
EXTT11=
EXTT12=
EXTT13=
EXTT14=
PLAYORDER=
